<?xml version="1.0" encoding="UTF-8"?>
<svg viewBox="0 0 250 270" xmlns="http://www.w3.org/2000/svg">
  <!-- Фон и сетка -->
  <rect x="0" y="0" width="250" height="270" fill="#f0f0f0"/>
  <line x1="125" y1="45" x2="125" y2="245" stroke="#aaaaaa" stroke-width="1"/>
  <line x1="25" y1="145" x2="225" y2="145" stroke="#aaaaaa" stroke-width="1"/>
  
  <!-- Основной круг джойстика -->
  <circle cx="125" cy="145" r="100" fill="none" stroke="#333333" stroke-width="2"/>
  
  <!-- Оси координат -->
  <line x1="125" y1="45" x2="125" y2="245" stroke="#2980b9" stroke-width="2"/>
  <line x1="25" y1="145" x2="225" y2="145" stroke="#2980b9" stroke-width="2"/>
  
  <!-- Стрелки к диагональным точкам -->
  <line x1="125" y1="145" x2="25" y2="45" stroke="#9b59b6" stroke-width="1" stroke-dasharray="3,2"/>
  <line x1="125" y1="145" x2="225" y2="45" stroke="#9b59b6" stroke-width="1" stroke-dasharray="3,2"/>
  <line x1="125" y1="145" x2="25" y2="245" stroke="#9b59b6" stroke-width="1" stroke-dasharray="3,2"/>
  <line x1="125" y1="145" x2="225" y2="245" stroke="#9b59b6" stroke-width="1" stroke-dasharray="3,2"/>
  
  <!-- Маркеры направлений -->
  <!-- Центр -->
  <circle cx="125" cy="145" r="5" fill="#e74c3c"/>
  <text x="125" y="134" font-family="Arial" font-size="7" text-anchor="middle" fill="#333333">Центр (покой)</text>
  
  <!-- Выносная линия для центра -->
  <line x1="125" y1="145" x2="155" y2="165" stroke="#e74c3c" stroke-width="1"/>
  <rect x="155" y="160" width="60" height="12" fill="#ffffff" stroke="#e74c3c" stroke-width="1"/>
  <text x="185" y="169" font-family="Arial" font-size="7" text-anchor="middle" fill="#333333">F1 7F 7F 00</text>
  
  <!-- Верх -->
  <circle cx="125" cy="45" r="5" fill="#3498db"/>
  <text x="125" y="34" font-family="Arial" font-size="7" text-anchor="middle" fill="#333333">Макс. вверх</text>
  
  <!-- Выносная линия для верха -->
  <line x1="125" y1="45" x2="170" y2="45" stroke="#3498db" stroke-width="1"/>
  <rect x="170" y="40" width="60" height="12" fill="#ffffff" stroke="#3498db" stroke-width="1"/>
  <text x="200" y="49" font-family="Arial" font-size="7" text-anchor="middle" fill="#333333">F1 ~80 ~01 64</text>
  
  <!-- Низ -->
  <circle cx="125" cy="245" r="5" fill="#3498db"/>
  <text x="125" y="258" font-family="Arial" font-size="7" text-anchor="middle" fill="#333333">Макс. вниз</text>
  <text x="125" y="268" font-family="Arial" font-size="7" text-anchor="middle" fill="#333333">F1 ~94 ~F9 64</text>
  
  <!-- Лево -->
  <circle cx="25" cy="145" r="5" fill="#3498db"/>
  <text x="25" y="134" font-family="Arial" font-size="7" text-anchor="middle" fill="#333333">Макс. влево</text>
  
  <!-- Выносная линия для лево -->
  <line x1="25" y1="145" x2="25" y2="110" stroke="#3498db" stroke-width="1"/>
  <rect x="25" y="98" width="60" height="12" fill="#ffffff" stroke="#3498db" stroke-width="1"/>
  <text x="55" y="107" font-family="Arial" font-size="7" text-anchor="middle" fill="#333333">F1 ~03 ~7E 64</text>
  
  <!-- Право -->
  <circle cx="225" cy="145" r="5" fill="#3498db"/>
  <text x="225" y="134" font-family="Arial" font-size="7" text-anchor="middle" fill="#333333">Макс. вправо</text>
  
  <!-- Выносная линия для право -->
  <line x1="225" y1="145" x2="225" y2="110" stroke="#3498db" stroke-width="1"/>
  <rect x="180" y="98" width="60" height="12" fill="#ffffff" stroke="#3498db" stroke-width="1"/>
  <text x="210" y="107" font-family="Arial" font-size="7" text-anchor="middle" fill="#333333">F1 ~FA ~7F 64</text>
  
  <!-- Диагонали -->
  <circle cx="25" cy="45" r="5" fill="#9b59b6"/>
  <text x="40" y="34" font-family="Arial" font-size="7" fill="#333333">Верх-Лево</text>
  
  <circle cx="225" cy="45" r="5" fill="#9b59b6"/>
  <text x="205" y="34" font-family="Arial" font-size="7" text-anchor="end" fill="#333333">Верх-Право</text>
  
  <circle cx="25" cy="245" r="5" fill="#9b59b6"/>
  <text x="40" y="255" font-family="Arial" font-size="7" fill="#333333">Низ-Лево</text>
  
  <circle cx="225" cy="245" r="5" fill="#9b59b6"/>
  <text x="205" y="255" font-family="Arial" font-size="7" text-anchor="end" fill="#333333">Низ-Право</text>
  
  <!-- Заголовок -->
  <text x="125" y="25" font-family="Arial" font-size="10" font-weight="bold" text-anchor="middle" fill="#333333">Диаграмма координат джойстика</text>
  
  <!-- Подписи осей -->
  <text x="235" y="145" font-family="Arial" font-size="9" font-weight="bold" fill="#2980b9">X</text>
  <text x="125" y="40" font-family="Arial" font-size="9" font-weight="bold" fill="#2980b9">Y</text>
  
  <!-- Легенда -->
  <rect x="25" y="10" width="10" height="5" fill="#e74c3c"/>
  <text x="40" y="14" font-family="Arial" font-size="6" fill="#333333">Центральная позиция</text>
  
  <rect x="105" y="10" width="10" height="5" fill="#3498db"/>
  <text x="120" y="14" font-family="Arial" font-size="6" fill="#333333">Основные направления</text>
  
  <rect x="185" y="10" width="10" height="5" fill="#9b59b6"/>
  <text x="200" y="14" font-family="Arial" font-size="6" fill="#333333">Диагонали</text>
</svg>
